PathFileType	4	(X/Y/Z)	C:\Users\86182\Documents\cortex\Trimmed_M4_H8.trc
DataRate	CameraRate	NumFrames	NumMarkers	Units	OrigDataRate	OrigDataStartFrame	OrigNumFrames
100.00	100.00	       169	2	mm	100.00	361	       901
Frame#	Time	gripper			box			
		X1	Y1	Z1	X2	Y2	Z2	

361	3.600	276.18585	151.25195	292.48767	278.23151	148.42900	155.03873	
362	3.610	276.18793	151.25063	292.48639	278.24469	148.42238	155.03894	
363	3.620	276.18939	151.25002	292.48495	278.25549	148.41800	155.03958	
364	3.630	276.19052	151.25000	292.48383	278.26367	148.41592	155.04092	
365	3.640	276.19159	151.25037	292.48303	278.26920	148.41605	155.04282	
366	3.650	276.19266	151.25076	292.48236	278.27197	148.41800	155.04466	
367	3.660	276.19342	151.25073	292.48114	278.27197	148.42097	155.04553	
368	3.670	276.19333	151.24968	292.47845	278.26913	148.42352	155.04390	
369	3.680	276.19138	151.24689	292.47308	278.26297	148.42360	155.03763	
370	3.690	276.18646	151.24164	292.46387	278.25220	148.41895	155.02396	
371	3.700	276.17737	151.23329	292.44965	278.23495	148.40723	154.99979	
372	3.710	276.16336	151.22163	292.43002	278.20963	148.38629	154.96271	
373	3.720	276.14456	151.20728	292.40588	278.17593	148.35474	154.91190	
374	3.730	276.12265	151.19171	292.37927	278.13504	148.31328	154.84935	
375	3.740	276.10056	151.17700	292.35248	278.08948	148.26588	154.78021	
376	3.750	276.08133	151.16492	292.32748	278.04276	148.21883	154.71216	
377	3.760	276.06674	151.15637	292.30588	277.99963	148.17789	154.65292	
378	3.770	276.05719	151.15111	292.28909	277.96533	148.14638	154.60776	
379	3.780	276.05231	151.14789	292.27826	277.94397	148.12509	154.57860	
380	3.790	276.05142	151.14526	292.27374	277.93713	148.11302	154.56454	
381	3.800	276.05371	151.14217	292.27487	277.94342	148.10794	154.56290	
382	3.810	276.05841	151.13831	292.27979	277.95889	148.10713	154.57002	
383	3.820	276.06482	151.13397	292.28619	277.97818	148.10820	154.58183	
384	3.830	276.07230	151.12979	292.29199	277.99527	148.10948	154.59427	
385	3.840	276.07999	151.12631	292.29590	278.00528	148.11020	154.60391	
386	3.850	276.08694	151.12398	292.29739	278.00604	148.11044	154.60864	
387	3.860	276.09210	151.12314	292.29672	277.99844	148.11087	154.60789	
388	3.870	276.09460	151.12384	292.29443	277.98578	148.11215	154.60263	
389	3.880	276.09445	151.12581	292.29126	277.97211	148.11443	154.59482	
390	3.890	276.09232	151.12837	292.28815	277.96091	148.11725	154.58682	
391	3.900	276.08908	151.13066	292.28619	277.95441	148.11996	154.58069	
392	3.910	276.08557	151.13197	292.28629	277.95343	148.12210	154.57758	
393	3.920	276.08243	151.13203	292.28848	277.95782	148.12346	154.57777	
394	3.930	276.07990	151.13113	292.29205	277.96628	148.12401	154.58069	
395	3.940	276.07809	151.12981	292.29590	277.97650	148.12386	154.58508	
396	3.950	276.07687	151.12865	292.29904	277.98529	148.12311	154.58943	
397	3.960	276.07602	151.12799	292.30090	277.98969	148.12196	154.59229	
398	3.970	276.07535	151.12802	292.30136	277.98816	148.12076	154.59277	
399	3.980	276.07477	151.12869	292.30054	277.98111	148.11983	154.59082	
400	3.990	276.07440	151.12973	292.29883	277.97092	148.11925	154.58728	
401	4.000	276.07452	151.13071	292.29688	277.96075	148.11882	154.58353	
402	4.010	276.07544	151.13115	292.29535	277.95337	148.11823	154.58099	
403	4.020	276.07758	151.13068	292.29465	277.95056	148.11719	154.58075	
404	4.030	276.08127	151.12907	292.29486	277.95279	148.11559	154.58318	
405	4.040	276.08661	151.12654	292.29559	277.95975	148.11363	154.58794	
406	4.050	276.09314	151.12357	292.29623	277.96997	148.11195	154.59380	
407	4.060	276.09976	151.12082	292.29636	277.98099	148.11128	154.59897	
408	4.070	276.10507	151.11894	292.29581	277.98990	148.11214	154.60179	
409	4.080	276.10782	151.11841	292.29468	277.99414	148.11449	154.60129	
410	4.090	276.10721	151.11945	292.29312	277.99261	148.11772	154.59750	
411	4.100	276.10324	151.12196	292.29138	277.98578	148.12097	154.59143	
412	4.110	276.09677	151.12544	292.28973	277.97562	148.12343	154.58467	
413	4.120	276.08939	151.12907	292.28854	277.96497	148.12453	154.57899	
414	4.130	276.08255	151.13196	292.28833	277.95636	148.12399	154.57582	
415	4.140	276.07736	151.13345	292.28952	277.95148	148.12189	154.57585	
416	4.150	276.07437	151.13338	292.29199	277.95111	148.11850	154.57907	
417	4.160	276.07349	151.13211	292.29514	277.95511	148.11433	154.58482	
418	4.170	276.07419	151.13025	292.29810	277.96246	148.11014	154.59180	
419	4.180	276.07605	151.12843	292.30011	277.97119	148.10681	154.59827	
420	4.190	276.07870	151.12706	292.30066	277.97876	148.10521	154.60237	
421	4.200	276.08194	151.12634	292.29944	277.98325	148.10582	154.60294	
422	4.210	276.08554	151.12634	292.29657	277.98383	148.10851	154.59982	
423	4.220	276.08945	151.12689	292.29236	277.98096	148.11249	154.59409	
424	4.230	276.09366	151.12761	292.28760	277.97620	148.11664	154.58757	
425	4.240	276.09808	151.12798	292.28336	277.97186	148.11998	154.58220	
426	4.250	276.10217	151.12762	292.28082	277.97012	148.12198	154.57938	
427	4.260	276.10486	151.12657	292.28076	277.97214	148.12250	154.57974	
428	4.270	276.10510	151.12523	292.28320	277.97760	148.12155	154.58307	
429	4.280	276.10260	151.12411	292.28738	277.98492	148.11948	154.58842	
430	4.290	276.09784	151.12358	292.29224	277.99182	148.11674	154.59441	
431	4.300	276.09189	151.12373	292.29669	277.99585	148.11401	154.59944	
432	4.310	276.08566	151.12454	292.30008	277.99536	148.11177	154.60228	
433	4.320	276.07980	151.12593	292.30212	277.98999	148.11047	154.60216	
434	4.330	276.07465	151.12775	292.30276	277.98087	148.11046	154.59906	
435	4.340	276.07047	151.12976	292.30228	277.97037	148.11182	154.59372	
436	4.350	276.06763	151.13159	292.30103	277.96130	148.11418	154.58751	
437	4.360	276.06656	151.13281	292.29956	277.95572	148.11699	154.58195	
438	4.370	276.06732	151.13309	292.29843	277.95471	148.11955	154.57828	
439	4.380	276.06964	151.13234	292.29797	277.95865	148.12143	154.57722	
440	4.390	276.07321	151.13077	292.29816	277.96710	148.12244	154.57889	
441	4.400	276.07761	151.12865	292.29871	277.97864	148.12260	154.58270	
442	4.410	276.08246	151.12634	292.29932	277.99075	148.12192	154.58762	
443	4.420	276.08734	151.12415	292.29965	278.00052	148.12027	154.59265	
444	4.430	276.09167	151.12238	292.29962	278.00577	148.11784	154.59679	
445	4.440	276.09467	151.12126	292.29938	278.00574	148.11522	154.59929	
446	4.450	276.09573	151.12093	292.29913	278.00113	148.11305	154.59981	
447	4.460	276.09473	151.12131	292.29913	277.99335	148.11159	154.59872	
448	4.470	276.09201	151.12216	292.29956	277.98447	148.11069	154.59698	
449	4.480	276.08829	151.12314	292.30057	277.97656	148.10999	154.59561	
450	4.490	276.08414	151.12405	292.30200	277.97125	148.10934	154.59517	
451	4.500	276.08005	151.12491	292.30359	277.96902	148.10890	154.59555	
452	4.510	276.07629	151.12578	292.30487	277.96933	148.10883	154.59628	
453	4.520	276.07309	151.12679	292.30554	277.97098	148.10930	154.59671	
454	4.530	276.07056	151.12796	292.30530	277.97247	148.11043	154.59618	
455	4.540	276.06879	151.12933	292.30417	277.97235	148.11214	154.59427	
456	4.550	276.06769	151.13083	292.30225	277.96988	148.11423	154.59099	
457	4.560	276.06708	151.13240	292.29974	277.96527	148.11626	154.58688	
458	4.570	276.06696	151.13382	292.29715	277.95953	148.11778	154.58289	
459	4.580	276.06741	151.13475	292.29507	277.95416	148.11845	154.57994	
460	4.590	276.06870	151.13478	292.29401	277.95062	148.11806	154.57875	
461	4.600	276.07114	151.13371	292.29419	277.94962	148.11656	154.57970	
462	4.610	276.07492	151.13153	292.29535	277.95120	148.11400	154.58275	
463	4.620	276.07996	151.12863	292.29700	277.95493	148.11053	154.58763	
464	4.630	276.08560	151.12558	292.29840	277.95993	148.10657	154.59363	
465	4.640	276.09085	151.12297	292.29926	277.96500	148.10274	154.59961	
466	4.650	276.09476	151.12125	292.29944	277.96869	148.09985	154.60425	
467	4.660	276.09671	151.12067	292.29895	277.96985	148.09859	154.60640	
468	4.670	276.09662	151.12123	292.29788	277.96808	148.09924	154.60550	
469	4.680	276.09482	151.12277	292.29633	277.96393	148.10165	154.60175	
470	4.690	276.09183	151.12491	292.29446	277.95837	148.10529	154.59602	
471	4.700	276.08841	151.12717	292.29276	277.95255	148.10941	154.58948	
472	4.710	276.08524	151.12897	292.29175	277.94742	148.11328	154.58330	
473	4.720	276.08279	151.12984	292.29196	277.94357	148.11632	154.57841	
474	4.730	276.08121	151.12970	292.29349	277.94135	148.11819	154.57538	
475	4.740	276.08035	151.12880	292.29590	277.94064	148.11880	154.57436	
476	4.750	276.07986	151.12759	292.29865	277.94104	148.11835	154.57503	
477	4.760	276.07950	151.12650	292.30109	277.94193	148.11725	154.57675	
478	4.770	276.07916	151.12566	292.30295	277.94254	148.11594	154.57878	
479	4.780	276.07898	151.12509	292.30420	277.94254	148.11475	154.58064	
480	4.790	276.07913	151.12471	292.30481	277.94196	148.11377	154.58218	
481	4.800	276.07986	151.12436	292.30490	277.94125	148.11293	154.58360	
482	4.810	276.08133	151.12390	292.30466	277.94125	148.11201	154.58525	
483	4.820	276.08365	151.12320	292.30417	277.94284	148.11086	154.58751	
484	4.830	276.08679	151.12228	292.30353	277.94662	148.10942	154.59047	
485	4.840	276.09052	151.12120	292.30273	277.95242	148.10797	154.59384	
486	4.850	276.09427	151.12013	292.30185	277.95938	148.10695	154.59698	
487	4.860	276.09732	151.11931	292.30109	277.96613	148.10689	154.59898	
488	4.870	276.09900	151.11893	292.30054	277.97137	148.10805	154.59918	
489	4.880	276.09894	151.11908	292.30032	277.97412	148.11021	154.59746	
490	4.890	276.09711	151.11981	292.30038	277.97388	148.11276	154.59415	
491	4.900	276.09366	151.12106	292.30072	277.97055	148.11522	154.58966	
492	4.910	276.08887	151.12276	292.30133	277.96487	148.11749	154.58437	
493	4.920	276.08319	151.12469	292.30212	277.95810	148.11957	154.57884	
494	4.930	276.07739	151.12663	292.30304	277.95148	148.12132	154.57396	
495	4.940	276.07230	151.12827	292.30396	277.94589	148.12241	154.57053	
496	4.950	276.06876	151.12929	292.30478	277.94171	148.12267	154.56892	
497	4.960	276.06726	151.12955	292.30542	277.93884	148.12213	154.56909	
498	4.970	276.06781	151.12907	292.30585	277.93704	148.12105	154.57050	
499	4.980	276.06989	151.12810	292.30597	277.93594	148.11981	154.57239	
500	4.990	276.07288	151.12689	292.30579	277.93515	148.11888	154.57397	
501	5.000	276.07626	151.12569	292.30536	277.93445	148.11847	154.57474	
502	5.010	276.07977	151.12457	292.30469	277.93396	148.11853	154.57474	
503	5.020	276.08319	151.12360	292.30383	277.93402	148.11884	154.57433	
504	5.030	276.08627	151.12280	292.30292	277.93488	148.11905	154.57399	
505	5.040	276.08868	151.12225	292.30212	277.93658	148.11897	154.57413	
506	5.050	276.08997	151.12198	292.30167	277.93918	148.11841	154.57501	
507	5.060	276.09006	151.12196	292.30164	277.94260	148.11725	154.57687	
508	5.070	276.08905	151.12216	292.30203	277.94672	148.11552	154.57968	
509	5.080	276.08740	151.12250	292.30270	277.95117	148.11343	154.58316	
510	5.090	276.08551	151.12286	292.30347	277.95532	148.11133	154.58676	
511	5.100	276.08371	151.12325	292.30414	277.95834	148.10974	154.58965	
512	5.110	276.08228	151.12357	292.30463	277.95941	148.10916	154.59099	
513	5.120	276.08130	151.12386	292.30484	277.95822	148.10983	154.59030	
514	5.130	276.08066	151.12415	292.30484	277.95508	148.11154	154.58781	
515	5.140	276.08008	151.12448	292.30469	277.95093	148.11382	154.58426	
516	5.150	276.07932	151.12495	292.30444	277.94684	148.11607	154.58067	
517	5.160	276.07831	151.12550	292.30420	277.94391	148.11780	154.57808	
518	5.170	276.07745	151.12598	292.30402	277.94284	148.11865	154.57712	
519	5.180	276.07727	151.12617	292.30380	277.94385	148.11852	154.57797	
520	5.190	276.07800	151.12599	292.30359	277.94684	148.11737	154.58057	
521	5.200	276.07950	151.12546	292.30341	277.95139	148.11526	154.58459	
522	5.210	276.08133	151.12476	292.30325	277.95688	148.11240	154.58943	
523	5.220	276.08292	151.12407	292.30322	277.96234	148.10927	154.59424	
524	5.230	276.08380	151.12360	292.30341	277.96689	148.10637	154.59822	
525	5.240	276.08371	151.12343	292.30377	277.96988	148.10417	154.60085	
526	5.250	276.08264	151.12357	292.30432	277.97134	148.10294	154.60202	
527	5.260	276.08090	151.12398	292.30487	277.97183	148.10274	154.60196	
528	5.270	276.07883	151.12459	292.30539	277.97217	148.10350	154.60098	
529	5.280	276.07660	151.12534	292.30576	277.97287	148.10518	154.59923	
